<svg width="56" height="32" viewBox="0 0 56 32" fill="none" xmlns="http://www.w3.org/2000/svg">
<path d="M47.7031 24.8999H56.0031L28.3365 0L0.669922 24.8999H8.96989L28.3365 7.44231L47.7031 24.8999ZM14.5032 5.00765V0H6.20324V12.45L14.5032 5.00765Z" fill="#7C6A46"/>
<path d="M26.5162 23.7379C26.5162 24.4462 26.3502 25.0936 26.0182 25.6801C25.6973 26.2556 25.2048 26.7204 24.5408 27.0745C23.8879 27.4176 23.0855 27.5891 22.1338 27.5891H20.5236V31.5399H17.27V19.8369H22.1338C23.0745 19.8369 23.8713 20.0029 24.5242 20.3349C25.1882 20.6669 25.6862 21.1262 26.0182 21.7127C26.3502 22.2992 26.5162 22.9743 26.5162 23.7379ZM21.8184 24.9995C22.7369 24.9995 23.1962 24.579 23.1962 23.7379C23.1962 22.8858 22.7369 22.4597 21.8184 22.4597H20.5236V24.9995H21.8184Z" fill="#7C6A46"/>
<path d="M39.2109 19.8369L35.1771 31.5399H31.0105L26.9601 19.8369H30.4461L33.1021 28.2863L35.7415 19.8369H39.2109Z" fill="#7C6A46"/>
</svg>
