<svg width="19" height="15" viewBox="0 0 19 15" fill="none" xmlns="http://www.w3.org/2000/svg">
<path d="M6.17647 15V14.1176H7.05882V13.2353H2.64706C1.94502 13.2353 1.27173 12.9564 0.775306 12.46C0.278886 11.9636 0 11.2903 0 10.5882V2.64706C0 1.94502 0.278886 1.27173 0.775306 0.775306C1.27173 0.278886 1.94502 0 2.64706 0H15.8824C16.5844 0 17.2577 0.278886 17.7541 0.775306C18.2505 1.27173 18.5294 1.94502 18.5294 2.64706V10.5882C18.5294 11.2903 18.2505 11.9636 17.7541 12.46C17.2577 12.9564 16.5844 13.2353 15.8824 13.2353H11.4706V14.1176H12.3529V15H6.17647ZM7.94118 13.2353V14.1176H10.5882V13.2353H7.94118ZM2.64706 0.882353C2.17903 0.882353 1.73017 1.06828 1.39922 1.39922C1.06828 1.73017 0.882353 2.17903 0.882353 2.64706V10.5882C0.882353 11.0563 1.06828 11.5051 1.39922 11.8361C1.73017 12.167 2.17903 12.3529 2.64706 12.3529H15.8824C16.3504 12.3529 16.7992 12.167 17.1302 11.8361C17.4611 11.5051 17.6471 11.0563 17.6471 10.5882V2.64706C17.6471 2.17903 17.4611 1.73017 17.1302 1.39922C16.7992 1.06828 16.3504 0.882353 15.8824 0.882353H2.64706Z" fill="#7C6A46"/>
</svg>
