<svg width="19" height="17" viewBox="0 0 19 17" fill="none" xmlns="http://www.w3.org/2000/svg">
<path d="M12.3516 10.4951C11.5377 9.81543 10.5116 9.44177 9.45122 9.43885C8.3908 9.43593 7.36274 9.80393 6.54506 10.4791V10.4951M15.1233 7.34443C13.5225 6.02385 11.512 5.30158 9.43688 5.30158C7.36171 5.30158 5.35124 6.02385 3.75049 7.34443M17.8556 4.03727C15.4858 2.07422 12.5051 1 9.4278 1C6.35054 1 3.3698 2.07422 1 4.03727M9.43688 12.3557C9.07649 12.3557 8.7242 12.4626 8.42456 12.6628C8.12491 12.863 7.89136 13.1476 7.75345 13.4806C7.61553 13.8135 7.57945 14.1799 7.64976 14.5333C7.72006 14.8868 7.8936 15.2115 8.14843 15.4663C8.40326 15.7211 8.72794 15.8947 9.0814 15.965C9.43486 16.0353 9.80123 15.9992 10.1342 15.8613C10.4671 15.7234 10.7517 15.4898 10.9519 15.1902C11.1521 14.8905 11.259 14.5382 11.259 14.1779C11.259 13.9386 11.2119 13.7016 11.1203 13.4806C11.0287 13.2595 10.8945 13.0586 10.7253 12.8894C10.5561 12.7202 10.3553 12.586 10.1342 12.4944C9.91311 12.4029 9.67616 12.3557 9.43688 12.3557Z" stroke="#7C6A46" stroke-linecap="round" stroke-linejoin="round"/>
</svg>
